<?xml version="1.0" encoding="utf-8"?>
<!-- Generator: Adobe Illustrator 19.0.1, SVG Export Plug-In . SVG Version: 6.00 Build 0)  -->
<svg version="1.1" id="Layer_1" xmlns="http://www.w3.org/2000/svg" xmlns:xlink="http://www.w3.org/1999/xlink" x="0px" y="0px"
	 viewBox="0 0 795 867.9" enable-background="new 0 0 795 867.9" xml:space="preserve">
<rect x="-86.6" y="-66.9" fill="#E74C3C" width="1019" height="1064.5"/>
<g>
	<g>
		<path fill="#FFFFFF" d="M539.1,606.3c-94.4,25-188.8-39.6-283.2-14.7c-6.4,1.7-11.8-1.7-11.9-8.2c-3-119.6-5.9-239.1-8.9-358.7
			c-0.2-6.5,5.3-14,12.1-16.1c100.3-31.5,200.5,32.2,300.8,0.7c6.8-2.1,12.2,1.1,12.1,7.9C557,341.6,554,466,551,590.5
			C550.9,597.2,545.5,604.6,539.1,606.3z"/>
	</g>
	<g>
		<path fill="none" stroke="#E74C3C" stroke-width="4" stroke-miterlimit="10" d="M275.7,267.3c8.7-5.3,25.6-11,47.9-8.7
			c19.9,2.1,25.2,8.7,43.2,10c24.2,1.7,27.4-10.1,54.5-9.6c28.8,0.5,36.9,14,55.5,8.7c2.8-0.8,11-3.3,23.4-5.8
			c6.6-1.3,11.3-2,15.2-1.1c3.8,0.9,5.1,2.9,5.5,4.2"/>
	</g>
	<g>
		<path fill="none" stroke="#E74C3C" stroke-width="4" stroke-miterlimit="10" d="M275.7,323.3c8.7-5.3,25.6-11,47.9-8.7
			c19.9,2.1,25.2,8.7,43.2,10c24.2,1.7,27.4-10.1,54.5-9.6c28.8,0.5,36.9,14,55.5,8.7c2.8-0.8,11-3.3,23.4-5.8
			c6.6-1.3,11.3-2,15.2-1.1c3.8,0.9,5.1,2.9,5.5,4.2"/>
	</g>
	<g>
		<path fill="none" stroke="#E74C3C" stroke-width="4" stroke-miterlimit="10" d="M275.7,377.3c8.7-5.3,25.6-11,47.9-8.7
			c19.9,2.1,25.2,8.7,43.2,10c24.2,1.7,27.4-10.1,54.5-9.6c28.8,0.5,36.9,14,55.5,8.7c2.8-0.8,11-3.3,23.4-5.8
			c6.6-1.3,11.3-2,15.2-1.1c3.8,0.9,5.1,2.9,5.5,4.2"/>
	</g>
	<g>
		<path fill="none" stroke="#E74C3C" stroke-width="4" stroke-miterlimit="10" d="M275.7,432.3c8.7-5.3,25.6-11,47.9-8.7
			c19.9,2.1,25.2,8.7,43.2,10c24.2,1.7,27.4-10.1,54.5-9.6c28.8,0.5,36.9,14,55.5,8.7c2.8-0.8,11-3.3,23.4-5.8
			c6.6-1.3,11.3-2,15.2-1.1c3.8,0.9,5.1,2.9,5.5,4.2"/>
	</g>
	<g>
		<path fill="none" stroke="#E74C3C" stroke-width="4" stroke-miterlimit="10" d="M275.7,488.3c8.7-5.3,25.6-11,47.9-8.7
			c19.9,2.1,25.2,8.7,43.2,10c24.2,1.7,27.4-10.1,54.5-9.6c28.8,0.5,36.9,14,55.5,8.7c2.8-0.8,11-3.3,23.4-5.8
			c6.6-1.3,11.3-2,15.2-1.1c3.8,0.9,5.1,2.9,5.5,4.2"/>
	</g>
	<g>
		<path fill="none" stroke="#E74C3C" stroke-width="4" stroke-miterlimit="10" d="M275.7,542.3c8.7-5.3,25.6-11,47.9-8.7
			c19.9,2.1,25.2,8.7,43.2,10c24.2,1.7,27.4-10.1,54.5-9.6c28.8,0.5,36.9,14,55.5,8.7c2.8-0.8,11-3.3,23.4-5.8
			c6.6-1.3,11.3-2,15.2-1.1c3.8,0.9,5.1,2.9,5.5,4.2"/>
	</g>
	<g>
		<g>
			<path fill="#E74C3C" d="M288.6,556c-1.1-21.5,10.6-42,20.7-60.2c10.4-18.7,22.3-36.5,35-53.6c25.6-34.6,55.2-66.2,84.1-98.1
				c15-16.6,30.1-33.3,41.5-52.8c1-1.7-1.6-3.2-2.6-1.5c-10.6,18.2-24.6,34-38.6,49.6c-14.6,16.1-29.1,32.4-43.5,48.6
				c-28.7,32.2-55.7,66.3-77,103.9c-10.9,19.2-23.6,41.3-22.5,64.2C285.7,557.9,288.7,557.9,288.6,556L288.6,556z"/>
		</g>
	</g>
	<g>
		<g>
			<path fill="#E74C3C" d="M330.6,251.5c-0.7,19.5,3.5,39.7,8.7,58.4c5.1,18.1,12.3,35.7,21,52.4c17.4,33.4,41.2,62.9,66.7,90.4
				c14.6,15.7,29.8,30.8,45,45.9c1.4,1.4,3.5-0.8,2.1-2.1c-52.6-51.9-106.3-106.7-129.4-178.8c-6.7-21-12-44-11.2-66.1
				C333.6,249.6,330.6,249.6,330.6,251.5L330.6,251.5z"/>
		</g>
	</g>
</g>
</svg>
