<?xml version="1.0" encoding="utf-8"?>
<!-- Generator: Adobe Illustrator 19.0.1, SVG Export Plug-In . SVG Version: 6.00 Build 0)  -->
<svg version="1.1" id="Layer_1" xmlns="http://www.w3.org/2000/svg" xmlns:xlink="http://www.w3.org/1999/xlink" x="0px" y="0px"
	 viewBox="0 0 857.4 892.6" enable-background="new 0 0 857.4 892.6" xml:space="preserve">
<rect x="-62.6" y="-92.2" fill="#E74C3C" width="1019" height="1064.5"/>
<g>
	<path fill="#FFFFFF" d="M566.9,612.8h-292c-6.6,0-12-5.4-12-12v-366c0-6.6,5.4-12,12-12h292c6.6,0,12,5.4,12,12v366
		C578.9,607.4,573.5,612.8,566.9,612.8z"/>
	<path fill="none" stroke="#E74C3C" stroke-width="4" stroke-miterlimit="10" d="M296.5,281.3c12.9-5.2,31.9-10.8,52.5-8.5
		c18.5,2.1,21.9,8.8,40.3,9.9c25.1,1.6,28.8-10.3,54.8-9.9c27.4,0.4,40.7,13.7,57.8,8.5c2.5-0.8,9.7-3.3,20.5-5.7
		c5.8-1.3,10-1.9,14.5-0.9c4.3,0.9,7,3,8.4,4.3"/>
	<path fill="none" stroke="#E74C3C" stroke-width="4" stroke-miterlimit="10" d="M296.5,337.3c12.9-5.2,31.9-10.8,52.5-8.5
		c18.5,2.1,21.9,8.8,40.3,9.9c25.1,1.6,28.8-10.3,54.8-9.9c27.4,0.4,40.7,13.7,57.8,8.5c2.5-0.8,9.7-3.3,20.5-5.7
		c5.8-1.3,10-1.9,14.5-0.9c4.3,0.9,7,3,8.4,4.3"/>
	<path fill="none" stroke="#E74C3C" stroke-width="4" stroke-miterlimit="10" d="M296.5,391.3c12.9-5.2,31.9-10.8,52.5-8.5
		c18.5,2.1,21.9,8.8,40.3,9.9c25.1,1.6,28.8-10.3,54.8-9.9c27.4,0.4,40.7,13.7,57.8,8.5c2.5-0.8,9.7-3.3,20.5-5.7
		c5.8-1.3,10-1.9,14.5-0.9c4.3,0.9,7,3,8.4,4.3"/>
	<path fill="none" stroke="#E74C3C" stroke-width="4" stroke-miterlimit="10" d="M296.5,446.3c12.9-5.2,31.9-10.8,52.5-8.5
		c18.5,2.1,21.9,8.8,40.3,9.9c25.1,1.6,28.8-10.3,54.8-9.9c27.4,0.4,40.7,13.7,57.8,8.5c2.5-0.8,9.7-3.3,20.5-5.7
		c5.8-1.3,10-1.9,14.5-0.9c4.3,0.9,7,3,8.4,4.3"/>
	<path fill="none" stroke="#E74C3C" stroke-width="4" stroke-miterlimit="10" d="M296.5,502.3c12.9-5.2,31.9-10.8,52.5-8.5
		c18.5,2.1,21.9,8.8,40.3,9.9c25.1,1.6,28.8-10.3,54.8-9.9c27.4,0.4,40.7,13.7,57.8,8.5c2.5-0.8,9.7-3.3,20.5-5.7
		c5.8-1.3,10-1.9,14.5-0.9c4.3,0.9,7,3,8.4,4.3"/>
	<path fill="none" stroke="#E74C3C" stroke-width="4" stroke-miterlimit="10" d="M296.5,556.3c12.9-5.2,31.9-10.8,52.5-8.5
		c18.5,2.1,21.9,8.8,40.3,9.9c25.1,1.6,28.8-10.3,54.8-9.9c27.4,0.4,40.7,13.7,57.8,8.5c2.5-0.8,9.7-3.3,20.5-5.7
		c5.8-1.3,10-1.9,14.5-0.9c4.3,0.9,7,3,8.4,4.3"/>
	<path fill="#E74C3C" stroke="#FFFFFF" stroke-width="6" stroke-miterlimit="10" d="M521.6,496.7c-18.5-55.2-9.6-79.8-6.2-81.2
		c4.4-1.8,26.7,13.9,57.1,59.4"/>
	<path fill="#E74C3C" stroke="#FFFFFF" stroke-width="6" stroke-miterlimit="10" d="M645.6,649.4l-45.8,20c-2,0.9-4.4,0-5.3-2.1
		l-73.1-167.1c-0.9-2,0-4.4,2.1-5.3l45.8-20c2-0.9,4.4,0,5.3,2.1l73.1,167.1C648.5,646.2,647.6,648.6,645.6,649.4z"/>
	<line fill="#E74C3C" stroke="#FFFFFF" stroke-width="6" stroke-miterlimit="10" x1="546.9" y1="484.7" x2="625" y2="658.5"/>
	<line fill="#E74C3C" stroke="#FFFFFF" stroke-width="15" stroke-miterlimit="10" x1="532.9" y1="491.7" x2="611" y2="665.5"/>
</g>
</svg>
